<mxfile host="app.diagrams.net" agent="Mozilla/5.0 (Windows NT 10.0; Win64; x64) AppleWebKit/537.36 (KHTML, like Gecko) Chrome/135.0.0.0 Safari/537.36" version="26.2.13">
  <diagram name="Page-1" id="2IC37cPohQ_fe2p3H_Ht">
    <mxGraphModel dx="1283" dy="562" grid="1" gridSize="10" guides="1" tooltips="1" connect="1" arrows="1" fold="1" page="1" pageScale="1" pageWidth="2000" pageHeight="1200" math="0" shadow="0">
      <root>
        <mxCell id="0" />
        <mxCell id="1" parent="0" />
        <mxCell id="-6gzKFmQ8naZVANwwobo-1" value="Admin" style="shape=umlActor;verticalLabelPosition=bottom;verticalAlign=top;html=1;" vertex="1" parent="1">
          <mxGeometry x="170" y="200" width="30" height="60" as="geometry" />
        </mxCell>
        <mxCell id="-6gzKFmQ8naZVANwwobo-2" value="" style="swimlane;startSize=0;" vertex="1" parent="1">
          <mxGeometry x="290" y="30" width="500" height="670" as="geometry" />
        </mxCell>
        <mxCell id="-6gzKFmQ8naZVANwwobo-17" value="Registration" style="ellipse;whiteSpace=wrap;html=1;" vertex="1" parent="-6gzKFmQ8naZVANwwobo-2">
          <mxGeometry x="100" y="20" width="300" height="40" as="geometry" />
        </mxCell>
        <mxCell id="-6gzKFmQ8naZVANwwobo-18" value="Login" style="ellipse;whiteSpace=wrap;html=1;" vertex="1" parent="-6gzKFmQ8naZVANwwobo-2">
          <mxGeometry x="90" y="110" width="320" height="30" as="geometry" />
        </mxCell>
        <mxCell id="-6gzKFmQ8naZVANwwobo-21" value="" style="endArrow=classic;html=1;rounded=0;exitX=0.5;exitY=0;exitDx=0;exitDy=0;" edge="1" parent="-6gzKFmQ8naZVANwwobo-2" source="-6gzKFmQ8naZVANwwobo-18" target="-6gzKFmQ8naZVANwwobo-17">
          <mxGeometry width="50" height="50" relative="1" as="geometry">
            <mxPoint x="330" y="160" as="sourcePoint" />
            <mxPoint x="380" y="110" as="targetPoint" />
          </mxGeometry>
        </mxCell>
        <mxCell id="-6gzKFmQ8naZVANwwobo-22" value="&amp;lt;&amp;lt;includes&amp;gt;&amp;gt;" style="text;html=1;align=center;verticalAlign=middle;resizable=0;points=[];autosize=1;strokeColor=none;fillColor=none;" vertex="1" parent="-6gzKFmQ8naZVANwwobo-2">
          <mxGeometry x="240" y="70" width="100" height="30" as="geometry" />
        </mxCell>
        <mxCell id="-6gzKFmQ8naZVANwwobo-25" value="Stock management" style="ellipse;whiteSpace=wrap;html=1;" vertex="1" parent="-6gzKFmQ8naZVANwwobo-2">
          <mxGeometry x="70" y="180" width="370" height="30" as="geometry" />
        </mxCell>
        <mxCell id="-6gzKFmQ8naZVANwwobo-26" value="Supplier management" style="ellipse;whiteSpace=wrap;html=1;" vertex="1" parent="-6gzKFmQ8naZVANwwobo-2">
          <mxGeometry x="85" y="240" width="340" height="30" as="geometry" />
        </mxCell>
        <mxCell id="-6gzKFmQ8naZVANwwobo-27" value="Customer management" style="ellipse;whiteSpace=wrap;html=1;" vertex="1" parent="-6gzKFmQ8naZVANwwobo-2">
          <mxGeometry x="95" y="300" width="320" height="40" as="geometry" />
        </mxCell>
        <mxCell id="-6gzKFmQ8naZVANwwobo-28" value="Billing" style="ellipse;whiteSpace=wrap;html=1;" vertex="1" parent="-6gzKFmQ8naZVANwwobo-2">
          <mxGeometry x="100" y="370" width="300" height="30" as="geometry" />
        </mxCell>
        <mxCell id="-6gzKFmQ8naZVANwwobo-29" value="View Information" style="ellipse;whiteSpace=wrap;html=1;" vertex="1" parent="-6gzKFmQ8naZVANwwobo-2">
          <mxGeometry x="130" y="450" width="250" height="30" as="geometry" />
        </mxCell>
        <mxCell id="-6gzKFmQ8naZVANwwobo-30" value="Ask expert" style="ellipse;whiteSpace=wrap;html=1;" vertex="1" parent="-6gzKFmQ8naZVANwwobo-2">
          <mxGeometry x="80" y="530" width="340" height="20" as="geometry" />
        </mxCell>
        <mxCell id="-6gzKFmQ8naZVANwwobo-31" style="edgeStyle=orthogonalEdgeStyle;rounded=0;orthogonalLoop=1;jettySize=auto;html=1;exitX=0.5;exitY=1;exitDx=0;exitDy=0;" edge="1" parent="-6gzKFmQ8naZVANwwobo-2" source="-6gzKFmQ8naZVANwwobo-30" target="-6gzKFmQ8naZVANwwobo-30">
          <mxGeometry relative="1" as="geometry" />
        </mxCell>
        <mxCell id="-6gzKFmQ8naZVANwwobo-49" value="Online pharmacy management system" style="text;html=1;align=center;verticalAlign=middle;whiteSpace=wrap;rounded=0;" vertex="1" parent="-6gzKFmQ8naZVANwwobo-2">
          <mxGeometry x="10" y="-10" width="210" height="30" as="geometry" />
        </mxCell>
        <mxCell id="-6gzKFmQ8naZVANwwobo-3" value="Customer&lt;div&gt;&lt;br&gt;&lt;/div&gt;" style="shape=umlActor;verticalLabelPosition=bottom;verticalAlign=top;html=1;outlineConnect=0;" vertex="1" parent="1">
          <mxGeometry x="870" y="350" width="30" height="60" as="geometry" />
        </mxCell>
        <mxCell id="-6gzKFmQ8naZVANwwobo-32" style="edgeStyle=orthogonalEdgeStyle;rounded=0;orthogonalLoop=1;jettySize=auto;html=1;exitX=0.5;exitY=1;exitDx=0;exitDy=0;" edge="1" parent="1" source="-6gzKFmQ8naZVANwwobo-2" target="-6gzKFmQ8naZVANwwobo-2">
          <mxGeometry relative="1" as="geometry" />
        </mxCell>
        <mxCell id="-6gzKFmQ8naZVANwwobo-36" value="" style="endArrow=none;html=1;rounded=0;entryX=0;entryY=0.5;entryDx=0;entryDy=0;" edge="1" parent="1" target="-6gzKFmQ8naZVANwwobo-18">
          <mxGeometry width="50" height="50" relative="1" as="geometry">
            <mxPoint x="200" y="220" as="sourcePoint" />
            <mxPoint x="630" y="180" as="targetPoint" />
          </mxGeometry>
        </mxCell>
        <mxCell id="-6gzKFmQ8naZVANwwobo-37" value="" style="endArrow=none;html=1;rounded=0;exitX=1;exitY=0.3333333333333333;exitDx=0;exitDy=0;exitPerimeter=0;entryX=0;entryY=0.5;entryDx=0;entryDy=0;" edge="1" parent="1" source="-6gzKFmQ8naZVANwwobo-1" target="-6gzKFmQ8naZVANwwobo-25">
          <mxGeometry width="50" height="50" relative="1" as="geometry">
            <mxPoint x="580" y="230" as="sourcePoint" />
            <mxPoint x="630" y="180" as="targetPoint" />
          </mxGeometry>
        </mxCell>
        <mxCell id="-6gzKFmQ8naZVANwwobo-38" value="" style="endArrow=none;html=1;rounded=0;exitX=1;exitY=0.3333333333333333;exitDx=0;exitDy=0;exitPerimeter=0;entryX=0;entryY=0.5;entryDx=0;entryDy=0;" edge="1" parent="1" source="-6gzKFmQ8naZVANwwobo-1" target="-6gzKFmQ8naZVANwwobo-26">
          <mxGeometry width="50" height="50" relative="1" as="geometry">
            <mxPoint x="580" y="230" as="sourcePoint" />
            <mxPoint x="630" y="180" as="targetPoint" />
          </mxGeometry>
        </mxCell>
        <mxCell id="-6gzKFmQ8naZVANwwobo-39" value="" style="endArrow=none;html=1;rounded=0;entryX=0;entryY=0.5;entryDx=0;entryDy=0;exitX=1;exitY=0.3333333333333333;exitDx=0;exitDy=0;exitPerimeter=0;" edge="1" parent="1" source="-6gzKFmQ8naZVANwwobo-1" target="-6gzKFmQ8naZVANwwobo-27">
          <mxGeometry width="50" height="50" relative="1" as="geometry">
            <mxPoint x="210" y="220" as="sourcePoint" />
            <mxPoint x="630" y="290" as="targetPoint" />
          </mxGeometry>
        </mxCell>
        <mxCell id="-6gzKFmQ8naZVANwwobo-41" value="" style="endArrow=none;html=1;rounded=0;exitX=1;exitY=0.3333333333333333;exitDx=0;exitDy=0;exitPerimeter=0;entryX=0;entryY=0.5;entryDx=0;entryDy=0;" edge="1" parent="1" source="-6gzKFmQ8naZVANwwobo-1" target="-6gzKFmQ8naZVANwwobo-29">
          <mxGeometry width="50" height="50" relative="1" as="geometry">
            <mxPoint x="580" y="560" as="sourcePoint" />
            <mxPoint x="630" y="510" as="targetPoint" />
          </mxGeometry>
        </mxCell>
        <mxCell id="-6gzKFmQ8naZVANwwobo-42" value="" style="endArrow=none;html=1;rounded=0;exitX=0;exitY=0.5;exitDx=0;exitDy=0;" edge="1" parent="1" source="-6gzKFmQ8naZVANwwobo-30">
          <mxGeometry width="50" height="50" relative="1" as="geometry">
            <mxPoint x="580" y="460" as="sourcePoint" />
            <mxPoint x="200" y="220" as="targetPoint" />
          </mxGeometry>
        </mxCell>
        <mxCell id="-6gzKFmQ8naZVANwwobo-43" value="" style="endArrow=none;html=1;rounded=0;exitX=1;exitY=0.5;exitDx=0;exitDy=0;entryX=0;entryY=0.3333333333333333;entryDx=0;entryDy=0;entryPerimeter=0;" edge="1" parent="1" source="-6gzKFmQ8naZVANwwobo-29" target="-6gzKFmQ8naZVANwwobo-3">
          <mxGeometry width="50" height="50" relative="1" as="geometry">
            <mxPoint x="580" y="450" as="sourcePoint" />
            <mxPoint x="630" y="400" as="targetPoint" />
          </mxGeometry>
        </mxCell>
        <mxCell id="-6gzKFmQ8naZVANwwobo-44" value="" style="endArrow=none;html=1;rounded=0;exitX=1;exitY=0.5;exitDx=0;exitDy=0;" edge="1" parent="1" source="-6gzKFmQ8naZVANwwobo-30">
          <mxGeometry width="50" height="50" relative="1" as="geometry">
            <mxPoint x="580" y="450" as="sourcePoint" />
            <mxPoint x="870" y="370" as="targetPoint" />
          </mxGeometry>
        </mxCell>
        <mxCell id="-6gzKFmQ8naZVANwwobo-45" value="" style="endArrow=none;html=1;rounded=0;exitX=1;exitY=0.5;exitDx=0;exitDy=0;" edge="1" parent="1" source="-6gzKFmQ8naZVANwwobo-28">
          <mxGeometry width="50" height="50" relative="1" as="geometry">
            <mxPoint x="580" y="350" as="sourcePoint" />
            <mxPoint x="870" y="370" as="targetPoint" />
          </mxGeometry>
        </mxCell>
        <mxCell id="-6gzKFmQ8naZVANwwobo-46" value="" style="endArrow=none;html=1;rounded=0;exitX=1;exitY=0.5;exitDx=0;exitDy=0;" edge="1" parent="1" source="-6gzKFmQ8naZVANwwobo-17">
          <mxGeometry width="50" height="50" relative="1" as="geometry">
            <mxPoint x="580" y="350" as="sourcePoint" />
            <mxPoint x="870" y="370" as="targetPoint" />
          </mxGeometry>
        </mxCell>
        <mxCell id="-6gzKFmQ8naZVANwwobo-47" value="" style="endArrow=none;html=1;rounded=0;exitX=1;exitY=0.5;exitDx=0;exitDy=0;" edge="1" parent="1" source="-6gzKFmQ8naZVANwwobo-18">
          <mxGeometry width="50" height="50" relative="1" as="geometry">
            <mxPoint x="580" y="350" as="sourcePoint" />
            <mxPoint x="870" y="370" as="targetPoint" />
          </mxGeometry>
        </mxCell>
      </root>
    </mxGraphModel>
  </diagram>
</mxfile>
